<svg xmlns="http://www.w3.org/2000/svg" x="0px" y="0px" width="30" height="30" viewBox="0 0 48 48">
    <path fill="#FFFFFF" d="M 38.292969 6.9960938 C 38.138969 6.9960938 37.982172 7.0063437 37.826172 7.0273438 C 34.285172 7.5013438 31.619859 9.3497344 29.630859 11.427734 C 27.907859 11.156734 26.043 11 24 11 C 21.68 11 19.592594 11.203781 17.683594 11.550781 C 15.688594 9.4307812 12.714563 7.5122969 9.1015625 7.0292969 C 8.9485625 7.0092969 8.7974844 7 8.6464844 7 C 7.1484844 7 5.7764375 7.98175 5.3984375 9.46875 C 4.5484375 12.81675 5.1900781 15.955891 6.0800781 18.337891 C 3.9950781 21.099891 3 24.499281 3 28.238281 C 3 34.989281 8 43 20 43 L 21.5 43 L 26.5 43 L 28 43 C 39 43 45 35.619281 45 28.238281 C 45 24.178281 43.834281 20.511719 41.363281 17.636719 C 42.090281 15.379719 42.295344 12.4625 41.527344 9.4375 C 41.150344 7.9545 39.786969 6.9960938 38.292969 6.9960938 z M 38.292969 9.9960938 C 38.431969 9.9960938 38.590141 10.064734 38.619141 10.177734 C 39.178141 12.377734 39.137812 14.760797 38.507812 16.716797 L 38.335938 17.25 C 38.122937 17.913 38.268656 18.639969 38.722656 19.167969 L 39.087891 19.591797 C 41.020891 21.838797 42 24.747281 42 28.238281 C 42 30.349664 41.48704 32.187267 40.521484 33.753906 C 40.825841 32.712507 41 31.624668 41 30.5 C 41 27.7 40.145489 25.30496 38.609375 23.615234 C 37.073261 21.925509 34.875 21 32.5 21 C 30 21 27.198056 22 24 22 C 20.785714 22 18 21 15.5 21 C 13.125 21 10.926739 21.925509 9.390625 23.615234 C 7.8545108 25.30496 7 27.7 7 30.5 C 7 31.786047 7.1753069 33.051208 7.5253906 34.253906 C 6.0026236 31.93795 6 29.5153 6 28.238281 C 6 25.042281 6.8335625 22.320531 8.4765625 20.144531 L 8.8066406 19.705078 C 9.2186406 19.159078 9.3239844 18.440781 9.0839844 17.800781 L 8.8925781 17.287109 C 7.9515781 14.767109 7.7546406 12.385031 8.3066406 10.207031 C 8.3396406 10.077031 8.5054844 10 8.6464844 10 C 8.6654844 10 8.684125 10.000906 8.703125 10.003906 C 12.092125 10.456906 14.415047 12.455469 15.498047 13.605469 L 15.871094 14.001953 C 16.335094 14.495953 17.018547 14.720609 17.685547 14.599609 L 18.220703 14.501953 C 20.078703 14.163953 21.969 14 24 14 C 25.804 14 27.494016 14.127625 29.166016 14.390625 L 29.681641 14.472656 C 30.328641 14.574656 30.9845 14.351906 31.4375 13.878906 L 31.798828 13.501953 C 33.748828 11.464953 35.850609 10.319953 38.224609 10.001953 C 38.247609 9.9989531 38.270969 9.9960938 38.292969 9.9960938 z M 15.5 24 C 17 24 20.214286 25 24 25 C 27.771944 25 31 24 32.5 24 C 34.125 24 35.426739 24.574491 36.390625 25.634766 C 37.354511 26.69504 38 28.3 38 30.5 C 38 34.505413 35.511499 38.000016 30.960938 39.373047 C 28.903519 39.78032 26.58957 40 24 40 C 21.215676 40 18.864561 39.786819 16.875 39.417969 C 15.082088 38.919174 13.688625 38.133527 12.652344 37.158203 C 10.856036 35.46756 10 33.166667 10 30.5 C 10 28.3 10.645489 26.69504 11.609375 25.634766 C 12.573261 24.574491 13.875 24 15.5 24 z M 16.5 28 A 2.5 3 0 0 0 16.5 34 A 2.5 3 0 0 0 16.5 28 z M 31.5 28 A 2.5 3 0 0 0 31.5 34 A 2.5 3 0 0 0 31.5 28 z"></path>
    </svg>